# Blender 4.5.3 LTS
# www.blender.org
mtllib проект хорор.mtl
o Cube
v 2.589999 0.363399 2.342096
v 2.589999 -0.364432 2.342096
v 2.589999 0.363399 2.665199
v 2.589999 -0.364432 2.665199
v 1.535099 0.363399 2.665199
v 1.535099 -0.364432 2.665199
v 1.535099 0.363399 2.342096
v 1.535099 -0.364432 2.342096
v 1.095987 0.363399 2.342096
v 1.095987 -0.364432 2.342096
v 0.512989 0.363399 2.342096
v 0.512989 -0.364432 2.342096
v -0.029518 0.363399 2.342096
v -0.029518 -0.364432 2.342096
v -0.029518 0.363399 2.389870
v -0.029518 -0.364432 2.389870
v -1.199086 0.363399 2.389870
v -1.199086 -0.364432 2.389870
v -1.199086 0.363399 2.168363
v -1.199086 -0.364432 2.168363
v -1.498383 0.363399 2.168363
v -1.498383 -0.364432 2.168363
v -1.498383 0.363399 1.622254
v -1.498383 -0.364432 1.622254
v -1.713000 0.363399 1.622254
v -1.713000 -0.364432 1.622254
v -1.713000 0.363399 1.032285
v -1.713000 -0.364432 1.032285
v -1.652117 0.363399 1.032285
v -1.652117 -0.364432 1.032285
v -1.652117 0.363399 -0.150169
v -1.652117 -0.364432 -0.150169
v -0.976949 0.363399 -0.977058
v -0.976949 -0.364432 -0.977058
v -0.976949 0.363399 -1.195317
v -0.976949 -0.364432 -1.195317
v -0.412334 0.363399 -1.195317
v -0.412334 -0.364432 -1.195317
v -0.272334 0.363399 -1.425317
v -0.272334 -0.364432 -1.425317
v 0.320342 0.363399 -1.425317
v 0.320342 -0.364432 -1.425317
v 0.490342 0.363399 -1.185317
v 0.490342 -0.364432 -1.185317
v 0.958414 0.363399 -1.185317
v 0.958414 -0.364432 -1.185317
v 1.530202 0.363399 -1.185317
v 1.530202 -0.364432 -1.185317
v 1.530202 0.363399 -1.078472
v 1.530202 -0.364432 -1.078472
v 1.614163 0.363399 -1.078472
v 1.614163 -0.364432 -1.078472
v 3.354163 0.363399 0.241528
v 3.354163 -0.364432 0.241528
v 3.354163 0.363399 1.227251
v 3.354163 -0.364432 1.227251
v 2.796163 0.363399 2.342096
v 2.796163 -0.364432 2.342096
v 2.796163 0.363399 2.342096
v 2.796163 -0.364432 2.342096
v 4.371035 0.363399 1.227251
v 4.371035 -0.364432 1.227251
v 4.371035 0.363399 2.350205
v 4.371035 -0.364432 2.350205
v 2.796163 0.363399 3.250205
v 2.796163 -0.364432 3.250205
v 4.371035 0.363399 3.250205
v 4.371035 -0.364432 3.250205
v 1.095987 0.363399 3.846539
v 1.095987 -0.364432 3.846539
v 0.512989 0.363399 3.846539
v 0.512989 -0.364432 3.846539
v 1.095987 -0.364432 2.481248
v 1.095987 0.363399 2.481248
v 0.512989 0.363399 2.481248
v 0.512989 -0.364432 2.481248
v 1.488764 0.363399 3.846539
v 1.488764 -0.364432 3.846539
v 1.488764 -0.364432 2.481248
v 1.488764 0.363399 2.481248
v 0.177324 0.363399 3.846539
v 0.177324 -0.364432 3.846539
v 0.177324 0.363399 2.481248
v 0.177324 -0.364432 2.481248
v -1.698383 0.363399 2.168363
v -1.698383 -0.364432 2.168363
v -4.316763 0.363399 1.622254
v -4.316763 -0.364432 1.622254
v -4.316763 0.363399 2.168363
v -4.316763 -0.364432 2.168363
v -2.322005 0.363399 2.168363
v -2.322809 0.363399 1.622254
v -2.322006 -0.364432 2.168363
v -2.322809 -0.364432 1.622254
v -4.316763 0.363399 0.050112
v -4.316763 -0.364432 0.050112
v -2.322809 0.363399 0.050112
v -2.322809 -0.364432 0.050112
v -3.952312 0.363399 0.050112
v -3.952312 -0.364432 0.050112
v -3.244036 0.363399 0.050112
v -3.244036 -0.364432 0.050112
v -3.952312 0.363399 -0.956755
v -3.952312 -0.364432 -0.956755
v -3.244036 0.363399 -0.902657
v -3.244036 -0.364432 -0.902657
v -1.952565 0.363399 -2.859710
v -1.952565 -0.364432 -2.859710
v -1.577636 0.363399 -2.512202
v -1.577636 -0.364432 -2.512202
v -1.950445 -0.364432 -2.188133
v -1.950445 0.363399 -2.188133
v -0.835669 0.363398 -1.777698
v -0.835670 -0.364432 -1.777698
v -1.161906 -0.364432 -1.410834
v -1.161906 0.363398 -1.410833
v -0.992156 0.363399 3.807411
v -0.992156 -0.364432 3.807411
v -0.992156 0.363399 2.439873
v -0.992156 -0.364432 2.439873
v -0.165121 0.363399 3.807411
v -0.165121 0.363399 2.439873
v -0.165121 -0.364432 3.807411
v -0.165121 -0.364432 2.439873
v 0.177324 0.363399 3.535294
v 0.177324 -0.364432 3.535294
v -0.165121 0.363399 3.535294
v -0.165121 -0.364432 3.535294
v 0.177324 0.363399 2.579754
v 0.177324 -0.364432 2.579754
v -0.165121 0.363399 2.579754
v -0.165121 -0.364432 2.579754
v -2.343952 0.363399 -2.487267
v -2.343952 -0.364432 -2.487267
v -2.459686 0.363399 -3.368057
v -2.459686 -0.364432 -3.368057
v -2.851073 0.363399 -2.995613
v -2.851073 -0.364432 -2.995613
v -2.385030 -0.364432 -2.528444
v -2.385030 0.363399 -2.528444
v -1.997729 -0.364432 -2.904983
v -1.997729 0.363399 -2.904983
v -2.213841 0.363399 -2.617064
v -2.213841 -0.364432 -2.617064
v -2.254919 -0.364432 -2.658242
v -2.254919 0.363399 -2.658242
v -2.075480 0.363399 -2.737091
v -2.075480 -0.364432 -2.737091
v -2.120644 -0.364432 -2.782364
v -2.120644 0.363399 -2.782364
v -1.237082 -0.364432 -2.175073
v -1.237082 0.363398 -2.175073
v -0.364674 0.363398 -2.324538
v -0.364674 -0.364432 -2.324538
v -0.569886 -0.364432 -2.948630
v -0.569885 0.363398 -2.948630
v 1.581171 0.363398 -2.324538
v 1.581171 -0.364432 -2.324538
v 1.581171 -0.364432 -2.948630
v 1.581171 0.363398 -2.948630
v 0.584340 0.363398 -2.948630
v 0.584340 -0.364432 -2.948630
v 0.351996 0.363398 -2.948630
v 0.351996 -0.364432 -2.948630
v 0.584340 0.363398 -2.990192
v 0.584340 -0.364432 -2.990192
v 0.351996 0.363398 -2.990192
v 0.351996 -0.364432 -2.990192
v 0.584340 0.363398 -3.534177
v 0.584340 -0.364432 -3.534177
v 0.351996 0.363398 -3.534177
v 0.351996 -0.364432 -3.534177
v -0.064796 0.363398 -2.990192
v -0.064796 -0.364432 -2.990192
v -0.064796 0.363398 -3.534177
v -0.064796 -0.364432 -3.534177
v 1.047068 0.363398 -2.990192
v 1.047068 -0.364432 -2.990192
v 1.047068 0.363398 -3.534177
v 1.047068 -0.364432 -3.534177
v 0.096480 0.363398 -2.324538
v 0.096480 -0.364432 -2.324538
v -0.090981 0.363398 -2.324538
v -0.090981 -0.364432 -2.324538
v 0.096480 0.363398 -2.292637
v 0.096480 -0.364432 -2.292637
v -0.090981 0.363398 -2.292637
v -0.090981 -0.364432 -2.292637
v 0.096480 0.363398 -1.967481
v 0.096480 -0.364432 -1.967481
v -0.090981 0.363398 -1.967481
v -0.090981 -0.364432 -1.967481
v 0.295656 0.363398 -2.292637
v 0.295656 -0.364432 -2.292637
v 0.295656 0.363398 -1.967481
v 0.295656 -0.364432 -1.967481
v -0.298608 0.363398 -2.292637
v -0.298608 -0.364432 -2.292637
v -0.298608 0.363398 -1.967481
v -0.298608 -0.364432 -1.967481
v 1.581171 -0.364432 -2.511464
v 1.581171 0.363398 -2.511464
v 1.581171 -0.364432 -2.729296
v 1.581171 0.363398 -2.729296
v 1.626238 -0.364432 -2.511464
v 1.626238 0.363398 -2.511464
v 1.626238 -0.364432 -2.729296
v 1.626238 0.363398 -2.729296
v 3.318184 -0.364432 -2.511464
v 3.318184 0.363398 -2.511464
v 3.318184 -0.364432 -2.729296
v 3.318184 0.363398 -2.729296
v 1.626238 -0.364432 -2.396140
v 1.626238 0.363398 -2.396140
v 3.318184 -0.364432 -2.396140
v 3.318184 0.363398 -2.396140
v 3.511210 -0.364432 -0.240553
v 3.511210 0.363398 -0.240553
v 4.483712 -0.364432 -1.475804
v 4.483712 0.363398 -1.475804
v 1.418114 -0.364432 -1.906052
v 1.418114 0.363398 -1.906052
v 3.900948 -0.364432 -1.935972
v 3.900948 0.363398 -1.935972
v 1.628847 0.363398 -2.192096
v 1.628847 -0.364432 -2.192096
v 3.603769 -0.364432 -2.170633
v 3.603769 0.363398 -2.170633
v 1.626238 -0.364432 -2.931039
v 1.626238 0.363398 -2.931039
v 3.318184 -0.364432 -2.885209
v 3.318184 0.363398 -2.885209
v 3.849513 0.363398 -0.689579
v 3.849513 -0.364432 -0.689579
v 2.214813 0.363398 -2.934417
v 2.214813 -0.364432 -2.934417
v 2.954462 -0.364432 -3.158618
v 2.954462 0.363398 -3.158618
v 2.601225 0.363398 -3.424846
v 2.601225 -0.364432 -3.424846
v -1.333155 0.363398 -1.579642
v -1.333155 -0.364432 -1.579642
v -1.201906 -0.364432 -1.370834
v -1.201906 0.363398 -1.370833
v -1.373155 0.363398 -1.539642
v -1.373155 -0.364432 -1.539642
v -1.171906 -0.364432 -1.340834
v -1.171906 0.363398 -1.340833
v -1.135079 -0.364432 -1.379574
v -1.135079 0.363398 -1.379574
v -1.988650 -0.364432 -2.150167
v -1.988650 0.363399 -2.150167
v -3.732278 0.363399 0.050112
v -3.732278 -0.364432 0.050112
v -3.537764 0.363399 0.050112
v -3.537765 -0.364432 0.050112
v -4.316763 -0.364432 0.100028
v -4.316763 0.363399 0.100028
v -3.952312 -0.364432 0.099986
v -3.244036 0.363399 0.099986
v -2.322809 0.363399 0.100040
v -2.322809 -0.364432 0.100040
v -3.952312 0.363399 0.099986
v -3.244036 -0.364432 0.099986
v -3.537764 0.363399 0.099986
v -3.537765 -0.364432 0.099986
v -3.732278 0.363399 0.099986
v -3.732278 -0.364432 0.099986
v -3.550331 -0.364432 1.622254
v -3.550331 0.363399 1.622254
v -3.733280 -0.364432 1.622254
v -3.733280 0.363399 1.622254
v -4.316763 0.363399 1.554620
v -2.322809 -0.364432 1.554620
v -4.316763 -0.364432 1.554620
v -2.322809 0.363399 1.554620
v -3.550331 -0.364432 1.554620
v -3.733280 -0.364432 1.554620
v -3.550331 0.363399 1.554620
v -3.733280 0.363399 1.554620
v 1.095987 -0.364432 5.376026
v 1.095987 0.363399 5.376026
v 0.512989 -0.364432 5.376026
v 0.512989 0.363399 5.376026
v -1.498383 0.363399 1.980991
v -1.498383 0.363399 1.793548
v -1.498383 -0.364432 1.980991
v -1.498383 -0.364432 1.793548
v -1.544930 0.363399 1.980991
v -1.544930 0.363399 1.793548
v -1.544930 -0.364432 1.980991
v -1.544930 -0.364432 1.793548
v -1.544930 -0.364432 2.168363
v -1.544930 0.363399 1.622254
v -1.544930 0.363399 2.168363
v -1.544930 -0.364432 1.622254
v -3.760801 0.363399 2.168363
v -3.553412 0.363399 2.168363
v -3.553411 -0.364432 2.168363
v -3.760801 -0.364432 2.168363
v -3.760801 0.363399 2.226326
v -3.553412 0.363399 2.226326
v -3.553411 -0.364432 2.226326
v -3.760801 -0.364432 2.226326
v -3.760801 0.363399 3.010761
v -3.553412 0.363399 3.010761
v -3.553411 -0.364432 3.010761
v -3.760801 -0.364432 3.010761
v -3.248999 0.363399 2.226326
v -3.248998 -0.364432 2.226326
v -3.248999 0.363399 3.010761
v -3.248998 -0.364432 3.010761
v -4.304850 0.363399 2.226326
v -4.304850 -0.364432 2.226326
v -4.304850 0.363399 3.010761
v -4.304850 -0.364432 3.010761
vn -1.0000 -0.0000 -0.0000
vn -0.0000 -0.0000 -1.0000
vn 1.0000 -0.0000 -0.0000
vn -0.0000 -0.0000 1.0000
vn -0.7746 -0.0000 -0.6325
vn -0.8542 -0.0000 -0.5199
vn 0.8160 -0.0000 -0.5780
vn 0.6044 -0.0000 -0.7967
vn 0.6798 -0.0000 -0.7334
vn 0.7049 -0.0000 0.7093
vn -0.6894 -0.0000 -0.7244
vn 0.7473 -0.0000 0.6645
vn 0.7035 -0.0000 -0.7107
vn -0.7589 -0.0000 0.6513
vn -0.7080 -0.0000 0.7063
vn 0.7080 -0.0000 -0.7063
vn -0.7063 -0.0000 -0.7080
vn 0.7063 -0.0000 0.7080
vn 0.7577 -0.0000 0.6526
vn -0.7572 -0.0000 -0.6531
vn -0.6226 -0.0000 0.7825
vn 0.7783 -0.0000 0.6278
vn 0.6197 -0.0000 -0.7848
vn -0.8051 -0.0000 -0.5931
vn -0.9999 -0.0000 0.0128
vn -0.0057 -0.0000 -1.0000
vn 0.7987 -0.0000 0.6017
vn 0.6019 -0.0000 -0.7986
vn 0.6009 -0.0000 -0.7993
vn -0.7855 -0.0000 -0.6189
vn -0.7020 -0.0000 0.7122
vn -0.7071 -0.0000 -0.7071
vn 0.7071 -0.0000 0.7071
vn 0.7071 -0.0000 -0.7071
vn 0.7248 -0.0000 0.6890
vn 0.7042 -0.0000 -0.7100
vn 0.0001 -0.0000 -1.0000
vn -0.0001 -0.0000 -1.0000
vt 0.375000 0.000000
vt 0.625000 0.000000
vt 0.625000 0.250000
vt 0.375000 0.250000
vt 0.000000 0.000000
vt 0.375000 0.000000
s 0
usemtl Material
f 4/1/1 3/2/1 1/3/1 2/4/1
f 3/2/2 4/1/2 6/1/2 5/2/2
f 5/2/3 6/1/3 8/1/3 7/2/3
f 7/2/2 8/1/2 10/1/2 9/2/2
f 12/5/1 76/1/1 75/2/1 11/5/1
f 12/5/4 11/5/4 13/5/4 14/5/4
f 14/5/3 13/5/3 15/5/3 16/5/3
f 16/5/4 15/5/4 17/5/4 18/5/4
f 18/5/1 17/5/1 19/5/1 20/5/1
f 20/5/4 19/5/4 21/5/4 22/5/4
f 24/5/4 23/5/4 294/5/4 296/5/4
f 26/5/1 25/5/1 27/5/1 28/5/1
f 28/5/2 27/5/2 29/5/2 30/5/2
f 30/5/1 29/5/1 31/5/1 32/5/1
f 32/5/5 31/5/5 33/5/5 34/5/5
f 34/5/1 33/5/1 35/5/1 36/5/1
f 36/5/2 35/5/2 37/5/2 38/5/2
f 38/5/6 37/5/6 39/5/6 40/5/6
f 40/5/2 39/5/2 41/5/2 42/5/2
f 42/5/7 41/5/7 43/5/7 44/5/7
f 44/5/2 43/5/2 45/5/2 46/5/2
f 46/5/2 45/5/2 47/5/2 48/5/2
f 48/5/3 47/5/3 49/5/3 50/5/3
f 50/5/2 49/5/2 51/5/2 52/5/2
f 52/5/8 51/5/8 53/5/8 54/5/8
f 54/5/3 53/5/3 55/5/3 56/5/3
f 1/3/2 57/2/2 58/1/2 2/4/2
f 62/5/3 61/5/3 63/5/3 64/5/3
f 56/5/2 55/5/2 61/5/2 62/5/2
f 59/5/1 60/5/1 66/5/1 65/5/1
f 65/5/4 66/5/4 68/5/4 67/5/4
f 64/5/3 63/5/3 67/5/3 68/5/3
f 69/2/1 70/1/1 281/1/1 282/2/1
f 9/2/1 10/1/1 73/6/1 74/2/1
f 80/2/1 79/6/1 78/1/1 77/2/1
f 74/2/4 73/6/4 79/6/4 80/2/4
f 70/1/2 69/2/2 77/2/2 78/1/2
f 71/2/2 72/1/2 82/1/2 81/2/2
f 76/1/4 75/2/4 83/2/4 84/1/4
f 85/5/2 86/5/2 93/5/2 91/5/2
f 25/5/2 26/5/2 94/5/2 92/5/2
f 87/5/1 88/5/1 90/5/1 89/5/1
f 91/5/2 93/5/2 299/5/2 298/5/2
f 100/5/1 99/5/1 103/5/1 104/5/1
f 101/5/3 102/5/3 106/5/3 105/5/3
f 109/5/9 110/5/9 108/5/9 107/5/9
f 252/5/10 251/5/10 111/5/10 112/5/10
f 104/5/11 103/5/11 133/5/11 134/5/11
f 116/5/12 115/5/12 114/5/12 113/5/12
f 110/5/13 109/5/13 152/5/13 151/5/13
f 249/5/14 250/5/14 116/5/14 115/5/14
f 271/5/4 272/5/4 87/5/4 88/5/4
f 22/5/1 21/5/1 285/5/1 287/5/1
f 120/1/3 119/2/3 117/2/3 118/1/3
f 121/2/2 123/1/2 118/1/2 117/2/2
f 124/1/4 122/2/4 119/2/4 120/1/4
f 122/2/1 124/1/1 132/1/1 131/2/1
f 81/2/3 82/1/3 126/1/3 125/2/3
f 125/2/2 126/1/2 128/1/2 127/2/2
f 123/1/1 121/2/1 127/2/1 128/1/1
f 130/1/4 129/2/4 131/2/4 132/1/4
f 84/1/3 83/2/3 129/2/3 130/1/3
f 138/5/11 137/5/11 135/5/11 136/5/11
f 139/5/15 140/5/15 137/5/15 138/5/15
f 142/5/16 141/5/16 136/5/16 135/5/16
f 107/5/17 108/5/17 148/5/17 147/5/17
f 144/5/15 143/5/15 146/5/15 145/5/15
f 134/5/17 133/5/17 143/5/17 144/5/17
f 140/5/18 139/5/18 145/5/18 146/5/18
f 147/5/16 148/5/16 149/5/16 150/5/16
f 141/5/18 142/5/18 150/5/18 149/5/18
f 164/5/1 163/5/1 167/5/1 168/5/1
f 165/5/4 166/5/4 178/5/4 177/5/4
f 155/5/2 156/5/2 163/5/2 164/5/2
f 113/5/19 114/5/19 154/5/19 153/5/19
f 151/5/20 152/5/20 156/5/20 155/5/20
f 201/5/3 202/5/3 157/5/3 158/5/3
f 181/5/4 182/5/4 158/5/4 157/5/4
f 162/5/2 161/5/2 160/5/2 159/5/2
f 161/5/3 162/5/3 166/5/3 165/5/3
f 172/5/2 171/5/2 169/5/2 170/5/2
f 174/5/1 173/5/1 175/5/1 176/5/1
f 171/5/2 172/5/2 176/5/2 175/5/2
f 168/5/4 167/5/4 173/5/4 174/5/4
f 177/5/3 178/5/3 180/5/3 179/5/3
f 170/5/2 169/5/2 179/5/2 180/5/2
f 183/5/1 184/5/1 188/5/1 187/5/1
f 153/5/4 154/5/4 184/5/4 183/5/4
f 182/5/3 181/5/3 185/5/3 186/5/3
f 191/5/4 192/5/4 190/5/4 189/5/4
f 194/5/3 193/5/3 195/5/3 196/5/3
f 189/5/4 190/5/4 196/5/4 195/5/4
f 186/5/2 185/5/2 193/5/2 194/5/2
f 197/5/1 198/5/1 200/5/1 199/5/1
f 192/5/4 191/5/4 199/5/4 200/5/4
f 187/5/2 188/5/2 198/5/2 197/5/2
f 159/5/3 160/5/3 204/5/3 203/5/3
f 202/5/4 201/5/4 205/5/4 206/5/4
f 203/5/2 204/5/2 208/5/2 207/5/2
f 211/5/3 212/5/3 210/5/3 209/5/3
f 206/5/1 205/5/1 213/5/1 214/5/1
f 222/5/21 221/5/21 217/5/21 218/5/21
f 209/5/3 210/5/3 216/5/3 215/5/3
f 233/5/22 234/5/22 219/5/22 220/5/22
f 223/5/23 224/5/23 220/5/23 219/5/23
f 227/5/23 228/5/23 224/5/23 223/5/23
f 225/5/24 226/5/24 221/5/24 222/5/24
f 214/5/25 213/5/25 226/5/25 225/5/25
f 215/5/23 216/5/23 228/5/23 227/5/23
f 212/5/3 211/5/3 231/5/3 232/5/3
f 207/5/1 208/5/1 230/5/1 229/5/1
f 229/5/26 230/5/26 235/5/26 236/5/26
f 218/5/27 217/5/27 234/5/27 233/5/27
f 240/5/28 239/5/28 238/5/28 237/5/28
f 232/5/29 231/5/29 237/5/29 238/5/29
f 236/5/30 235/5/30 239/5/30 240/5/30
f 112/5/31 111/5/31 242/5/31 241/5/31
f 241/5/32 242/5/32 246/5/32 245/5/32
f 115/5/33 116/5/33 244/5/33 243/5/33
f 243/5/34 244/5/34 248/5/34 247/5/34
f 36/5/14 35/5/14 250/5/14 249/5/14
f 248/5/35 247/5/35 249/5/35 250/5/35
f 105/5/10 106/5/10 251/5/10 252/5/10
f 245/5/36 246/5/36 251/5/36 252/5/36
f 96/5/3 95/5/3 258/5/3 257/5/3
f 261/5/37 262/5/37 264/5/37 260/5/37
f 263/5/38 259/5/38 257/5/38 258/5/38
f 265/5/4 266/5/4 264/5/4 260/5/4
f 263/5/4 259/5/4 268/5/4 267/5/4
f 254/5/3 253/5/3 267/5/3 268/5/3
f 100/5/2 99/5/2 253/5/2 254/5/2
f 96/5/2 95/5/2 99/5/2 100/5/2
f 255/5/1 256/5/1 266/5/1 265/5/1
f 98/5/4 97/5/4 101/5/4 102/5/4
f 97/5/1 98/5/1 262/5/1 261/5/1
f 102/5/4 101/5/4 255/5/4 256/5/4
f 94/5/4 92/5/4 270/5/4 269/5/4
f 92/5/3 94/5/3 274/5/3 276/5/3
f 88/5/1 87/5/1 273/5/1 275/5/1
f 274/5/4 276/5/4 279/5/4 277/5/4
f 276/5/3 274/5/3 262/5/3 261/5/3
f 275/5/1 273/5/1 258/5/1 257/5/1
f 278/5/1 271/5/1 272/5/1 280/5/1
f 278/5/4 280/5/4 273/5/4 275/5/4
f 269/5/1 270/5/1 279/5/1 277/5/1
f 282/2/2 281/1/2 283/1/2 284/2/2
f 72/1/3 71/2/3 284/2/3 283/1/3
f 287/5/4 285/5/4 289/5/4 291/5/4
f 288/5/1 286/5/1 23/5/1 24/5/1
f 286/5/2 288/5/2 292/5/2 290/5/2
f 291/5/3 289/5/3 295/5/3 293/5/3
f 296/5/4 294/5/4 25/5/4 26/5/4
f 295/5/2 293/5/2 86/5/2 85/5/2
f 292/5/1 290/5/1 294/5/1 296/5/1
f 298/5/1 299/5/1 303/5/1 302/5/1
f 297/5/2 300/5/2 90/5/2 89/5/2
f 302/5/4 303/5/4 310/5/4 309/5/4
f 300/5/3 297/5/3 301/5/3 304/5/3
f 306/5/2 307/5/2 308/5/2 305/5/2
f 309/5/1 310/5/1 312/5/1 311/5/1
f 307/5/2 306/5/2 311/5/2 312/5/2
f 314/5/3 313/5/3 315/5/3 316/5/3
f 305/5/2 308/5/2 316/5/2 315/5/2
f 304/5/4 301/5/4 313/5/4 314/5/4
